# AST/ASF file generated using VICON BodyLanguage
# -----------------------------------------------
:version 1.10
:name VICON
:units
  mass 1.0
  length 0.45
  angle deg
:documentation
   .ast/.asf automatically generated from VICON data using
   VICON BodyBuilder and BodyLanguage model FoxedUp or BRILLIANT.MOD
:root
   order TX TY TZ RX RY RZ
   axis XYZ
   position 0 0 0  
   orientation 0 0 0 
:bonedata
  begin
     id 1 
     name lhipjoint
     direction 0.54267 -0.795011 0.271047 
     length 2.39899 
     axis 0 0 0  XYZ
  end
  begin
     id 2 
     name lfemur
     direction 0.34202 -0.939693 0  
     length 7.49701  
     axis 0 0 20  XYZ
    dof rx ry rz
    limits (-160.0 20.0)
           (-70.0 70.0)
           (-60.0 70.0)
  end
  begin
     id 3 
     name ltibia
     direction 0.34202 -0.939693 0   
     length 8.1668   
     axis 0 0 20   XYZ
    dof rx
    limits (-10.0 170.0)
  end
  begin
     id 4 
     name lfoot
     direction 0.0736283 -0.202292 0.976554   
     length 2.13544   
     axis -90 7.62852e-016 20   XYZ
    dof rx rz
    limits (-45.0 90.0)
           (-70.0 20.0)
  end
  begin
     id 5 
     name ltoes
     direction 1.53557e-011 -4.22024e-011 1   
     length 1.07411   
     axis -90 7.62852e-016 20   XYZ
    dof rx
    limits (-90.0 20.0)
  end
  begin
     id 6 
     name rhipjoint
     direction -0.538061 -0.797813 0.272002   
     length 2.39057  
     axis 0 0 0  XYZ 
  end
  begin
     id 7 
     name rfemur
     direction -0.34202 -0.939693 0   
     length 7.50152   
     axis 0 0 -20   XYZ
    dof rx ry rz
    limits (-160.0 20.0)
           (-70.0 70.0)
           (-70.0 60.0)
  end
  begin
     id 8 
     name rtibia
     direction -0.34202 -0.939693 0   
     length 8.05793   
     axis 0 0 -20   XYZ
    dof rx
    limits (-10.0 170.0)
 end
 begin
     id 9 
     name rfoot
     direction -0.0765195 -0.210236 0.974652   
     length 2.28698  
     axis -90 -7.62852e-016 -20   XYZ
    dof rx rz
    limits (-45.0 90.0)
           (-20.0 70.0)
  end
  begin
     id 10 
     name rtoes
     direction -1.53542e-011 -4.21847e-011 1   
     length 1.14762   
     axis -90 -7.62852e-016 -20   XYZ
    dof rx
    limits (-90.0 20.0)
  end
  begin
     id 11 
     name lowerback
     direction -0.0217239 0.996592 -0.0795765   
     length 2.08176   
     axis 0 0 0   XYZ
    dof rx ry rz
    limits (-20.0 45.0)
           (-30.0 30.0)
           (-30.0 30.0)
  end
  begin
     id 12 
     name upperback
     direction -0.00563773 0.999651 -0.0258155   
     length 2.08898   
     axis 0 0 0   XYZ
    dof rx ry rz
    limits (-20.0 45.0)
           (-30.0 30.0)
           (-30.0 30.0)
  end
  begin
     id 13 
     name thorax
     direction 0.0032706 0.999923 0.0119599   
     length 2.0968   
     axis 0 0 0   XYZ
    dof rx ry rz
    limits (-20.0 45.0)
           (-30.0 30.0)
           (-30.0 30.0)
  end
  begin
     id 14 
     name lowerneck
     direction -0.0285886 0.99568 0.0883427   
     length 1.81272   
     axis 0 0 0   XYZ
    dof rx ry rz
    limits (-20.0 45.0)
           (-30.0 30.0)
           (-30.0 30.0)
  end
  begin
     id 15 
     name upperneck
     direction 0.0807535 0.97985 -0.18268   
     length 1.82518   
     axis 0 0 0   XYZ
    dof rx ry rz
    limits (-20.0 45.0)
           (-30.0 30.0)
           (-30.0 30.0)
  end
  begin
     id 16
     name head
     direction 0.0236605 0.997053 -0.0729767  
     length 1.84443  
     axis 0 0 0   XYZ
    dof rx ry rz
    limits (-20.0 45.0)
           (-30.0 30.0)
           (-30.0 30.0)
  end
  begin
     id 17 
     name lclavicle
     direction 0.918986 0.39378 -0.0200683  
     length 3.27822  
     axis 0 0 0   XYZ
    dof ry rz
    limits (-20.0 10.0)
           (0.0 20.0)
  end
  begin
     id 18 
     name lhumerus
     direction 1 -4.4897e-011 2.09544e-027   
     length 5.5568   
     axis 180 -30 -90   XYZ
    dof rx ry rz
    limits (-60.0 90.0)
           (-90.0 90.0)
           (-90.0 90.0)
  end
  begin
     id 19
     name lradius
     direction 1 -4.48957e-011 -1.27696e-026   
     length 3.63979   
     axis 180 -30 -90   XYZ
    dof rx
    limits (-10.0 170.0)
  end
  begin
     id 20
     name lwrist
     direction 1 -4.49001e-011 -1.49001e-026   
     length 1.8199   
     axis 9.0955e-015 90 90   XYZ
    dof ry
    limits (-180.0 0.0)
 end
  begin
     id 21 
     name lhand
     direction 1 -4.48709e-011 -2.9758e-026   
     length 0.569419   
     axis 1.90115e-014 90 90   XYZ
    dof rx rz
    limits (-90.0 90.0)
           (-45.0 45.0)
  end
  begin
     id 22 
     name lfingers
     direction 1 -4.49175e-011 -5.96505e-026   
     length 0.45908   
     axis 3.80223e-014 90 90   XYZ
    dof rx
    limits (0.0 90.0)
  end
  begin
     id 23
     name lthumb
     direction 0.707107 -6.34864e-011 0.707107   
     length 0.65915   
     axis -90 45 -3.84942e-014   XYZ
    dof rx rz
    limits (-45.0 45.0)
           (-45.0 45.0)
  end
  begin
     id 24 
     name rclavicle
     direction -0.911913 0.396426 -0.106115   
     length 3.46301  
     axis 0 0 0   XYZ 
    dof ry rz
    limits (-10.0 20.0)
           (-20.0 0.0)
  end
  begin
     id 25 
     name rhumerus
     direction -1 -4.48965e-011 7.78516e-028  
     length 5.34339   
     axis 180 30 90   XYZ
    dof rx ry rz
    limits (-90.0 60.0)
           (-90.0 90.0)
           (-90.0 90.0)
  end
  begin
     id 26 
     name rradius
     direction -1 -4.48948e-011 -5.79823e-027   
     length 3.65101   
     axis 180 30 90   XYZ
    dof rx
    limits (-10.0 170.0)
  end
  begin
     id 27 
     name rwrist
     direction -1 -4.48995e-011 -1.48996e-026   
     length 1.8255   
     axis 9.0955e-015 -90 -90   XYZ
    dof ry
    limits (-180.0 0.0)
  end
  begin
     id 28
     name rhand
     direction -1 -4.48957e-011 -2.97937e-026   
     length 0.694249   
     axis 1.90115e-014 -90 -90   XYZ
    dof rx rz
    limits (-90.0 90.0)
           (-45.0 45.0)
  end
  begin
     id 29
     name rfingers
     direction -1 -4.4898e-011 -5.95943e-026   
     length 0.559721   
     axis 3.80223e-014 -90 -90   XYZ
    dof rx
    limits (0.0 90.0)
  end
  begin
     id 30
     name rthumb
     direction -0.707107 -6.34969e-011 0.707107   
     length 0.803651   
     axis -90 -45 3.84942e-014   XYZ
    dof rx rz
    limits (-45.0 45.0)
           (-45.0 45.0)
  end
:hierarchy
  begin
    root lhipjoint rhipjoint lowerback
    lhipjoint lfemur
    lfemur ltibia
    ltibia lfoot
    lfoot ltoes
    rhipjoint rfemur
    rfemur rtibia
    rtibia rfoot
    rfoot rtoes
    lowerback upperback
    upperback thorax
    thorax lowerneck lclavicle rclavicle
    lowerneck upperneck
    upperneck head
    lclavicle lhumerus
    lhumerus lradius
    lradius lwrist
    lwrist lhand lthumb
    lhand lfingers
    rclavicle rhumerus
    rhumerus rradius
    rradius rwrist
    rwrist rhand rthumb
    rhand rfingers
  end

#!OML:ASF H:\Terrain\Walking\May29\JustinRory\rory.ASF
:FULLY-SPECIFIED
:DEGREES
211
root -14.1001 17.7691 -7.89749 5.02623 21.9844 -3.44945
lowerback 8.06775 -3.08 -5.46681
upperback 3.83665 -4.43061 2.08507
thorax 0.0620583 -2.3104 5.56305
lowerneck -13.45 1.90984 0.697034
upperneck 18.8983 3.67267 -5.56095
head 8.20402 1.24264 -1.56361
rclavicle 4.92986e-014 -1.19271e-015
rhumerus -40.0532 -5.25156 -71.9436
rradius 32.4759
rwrist 7.93293
rhand -9.9773 36.6139
rfingers 7.12502
rthumb 16.0055 7.25508
lclavicle 4.92986e-014 -1.19271e-015
lhumerus -11.3076 -13.1486 86.8162
lradius 19.4751
lwrist 1.29018
lhand -27.8726 18.6311
lfingers 7.12502
lthumb -1.26287 48.6072
rfemur -31.7094 9.3928 11.4383
rtibia 55.135
rfoot -7.53439 13.7813
rtoes -3.11825
lfemur -7.73873 7.26811 -28.4631
ltibia 38.5026
lfoot -8.60692 -6.57238
ltoes -5.53706
212
root -14.1216 17.7952 -7.85982 5.23285 22.0753 -3.7442
lowerback 7.48293 -3.00013 -5.0661
upperback 3.75179 -4.27293 2.13901
thorax 0.246589 -2.23048 5.34861
lowerneck -13.5167 1.80533 0.92777
upperneck 19.0554 3.53022 -5.75801
head 8.27114 1.16861 -1.68452
rclavicle -4.77083e-014 2.06736e-014
rhumerus -39.608 -5.97386 -71.4159
rradius 32.0311
rwrist 7.90674
rhand -10.6081 36.9072
rfingers 7.12502
rthumb 15.398 7.50062
lclavicle -4.77083e-014 2.06736e-014
lhumerus -11.3389 -12.7451 86.7903
lradius 18.9833
lwrist -0.267698
lhand -27.6555 17.8401
lfingers 7.12502
lthumb -1.05322 47.8172
rfemur -30.5032 9.98795 11.779
rtibia 53.409
rfoot -8.26446 13.7636
rtoes -4.06603
lfemur -7.91636 7.22782 -27.9653
ltibia 38.3376
lfoot -8.27947 -6.84606
ltoes -6.57794
213
root -14.1428 17.8254 -7.80696 5.34375 22.0179 -4.05798
lowerback 6.91177 -3.00851 -4.89783
upperback 3.64948 -4.25204 2.35556
thorax 0.45728 -2.22529 5.44508
lowerneck -13.4225 1.82203 0.679502
upperneck 19.2047 3.61983 -5.76602
head 8.30424 1.19112 -1.63718
rclavicle 5.12864e-014 -2.50469e-014
rhumerus -39.3206 -6.17355 -70.7817
rradius 32.2147
rwrist 7.59065
rhand -10.8389 37.3171
rfingers 7.12502
rthumb 15.1756 7.89355
lclavicle 5.12864e-014 -2.50469e-014
lhumerus -11.7026 -13.3733 86.9124
lradius 18.7234
lwrist -0.306369
lhand -26.339 18.6017
lfingers 7.12502
lthumb 0.218286 48.5814
rfemur -29.2591 10.7714 12.2054
rtibia 51.711
rfoot -9.01667 13.5609
rtoes -3.58184
lfemur -7.91158 7.31987 -27.4125
ltibia 38.0987
lfoot -7.88997 -7.17114
ltoes -5.96559
214
root -14.1608 17.854 -7.75228 5.41472 21.9335 -4.46226
lowerback 6.62011 -3.02345 -4.64823
upperback 3.32781 -4.25051 2.591
thorax 0.283348 -2.21188 5.54362
lowerneck -13.2967 1.91378 0.566077
upperneck 19.5486 3.83645 -5.96071
head 8.40801 1.26087 -1.6622
rclavicle -5.86415e-015 2.42517e-014
rhumerus -39.6491 -5.99097 -70.258
rradius 32.9757
rwrist 6.71568
rhand -10.7728 37.1886
rfingers 7.12502
rthumb 15.2394 7.76993
lclavicle -5.86415e-015 2.42517e-014
lhumerus -12.2578 -14.3699 87.1268
lradius 18.361
lwrist -0.097697
lhand -25.8012 18.7709
lfingers 7.12502
lthumb 0.73775 48.7493
rfemur -28.0631 11.664 12.7162
rtibia 50.0594
rfoot -9.4688 13.3589
rtoes -1.19054
lfemur -7.79325 7.41019 -26.781
ltibia 37.7048
lfoot -7.56777 -7.27296
ltoes -4.89958
215
root -14.1696 17.8842 -7.70227 5.77871 21.7602 -4.45496
lowerback 6.14028 -2.82511 -4.57904
upperback 2.97573 -3.97092 2.51811
thorax 0.136504 -2.05825 5.39849
lowerneck -13.084 1.83654 0.984046
upperneck 19.8383 3.70426 -6.18307
head 8.47271 1.20609 -1.82533
rclavicle 1.70955e-014 1.15295e-014
rhumerus -40.2518 -6.51786 -69.7707
rradius 33.6833
rwrist 5.90778
rhand -10.2953 36.3029
rfingers 7.12502
rthumb 15.6993 6.91975
lclavicle 1.70955e-014 1.15295e-014
lhumerus -12.6754 -15.2546 87.1909
lradius 17.9984
lwrist -0.806131
lhand -25.7741 17.8849
lfingers 7.12502
lthumb 0.7639 47.8632
rfemur -27.0452 12.3851 12.7608
rtibia 48.4558
rfoot -10.179 13.3877
rtoes 0.0588692
lfemur -7.76177 7.47006 -26.6381
ltibia 37.2048
lfoot -7.42325 -7.3277
ltoes -3.66186
